<svg width="20" height="20" viewBox="0 0 20 20" fill="none" xmlns="http://www.w3.org/2000/svg">
<g clip-path="url(#clip0_274_188)">
<path fill-rule="evenodd" clip-rule="evenodd" d="M20 2C20 0.8962 19.1038 0 18 0H2C0.8962 0 0 0.8962 0 2V18C0 19.1038 0.8962 20 2 20H18C19.1038 20 20 19.1038 20 18V2Z" fill="#7742E6"/>
<path fill-rule="evenodd" clip-rule="evenodd" d="M16.7303 4.74146C16.7303 4.74146 8.10312 7.05305 4.66212 7.97512C3.84079 8.19519 3.26965 8.93946 3.26965 9.78979C3.26965 10.4362 3.26965 11.0557 3.26965 11.0557C3.26965 11.0557 10.1999 9.19879 14.1151 8.14972C15.6577 7.73639 16.7303 6.33846 16.7303 4.74146Z" fill="white"/>
<path fill-rule="evenodd" clip-rule="evenodd" d="M11.564 10.3286C11.564 10.3286 7.02452 11.545 4.66212 12.178C3.84079 12.398 3.26965 13.1423 3.26965 13.9926C3.26965 14.639 3.26965 15.2586 3.26965 15.2586C3.26965 15.2586 6.51772 14.3883 8.94865 13.7369C10.4913 13.3236 11.564 11.9256 11.564 10.3286V10.3286Z" fill="white"/>
</g>
<defs>
<clipPath id="clip0_274_188">
<rect width="20" height="20" fill="white"/>
</clipPath>
</defs>
</svg>
