<svg width="20" height="20" viewBox="0 0 20 20" fill="none" xmlns="http://www.w3.org/2000/svg">
<path d="M7.52329 2.38397C7.47129 2.75197 7.22329 2.85597 7.07529 3.05197C6.04329 4.41197 5.35529 5.91597 5.55529 7.72397C5.61929 8.30397 5.88729 8.84797 6.23129 9.32397C7.36329 10.872 8.97929 11.576 10.6233 12.22C11.2353 12.46 11.8553 12.664 12.4633 12.92C12.9433 13.124 13.3873 13.412 13.7553 13.812C14.5153 14.636 14.4353 15.608 13.5353 16.252C12.7233 16.836 11.8113 16.92 10.8713 16.796C10.3873 16.732 9.93129 16.564 9.47529 16.38C8.49529 15.984 7.49129 15.82 6.44729 16.048C5.59929 16.232 4.88329 16.668 4.31129 17.348C4.04729 17.664 3.92729 17.76 3.65129 17.316C3.29129 16.736 2.83929 16.228 2.51129 15.612C2.10329 14.844 1.81929 14.024 1.65929 13.176C1.31529 11.36 1.42729 9.55997 2.05129 7.81597C2.74329 5.87997 3.91929 4.37597 5.57529 3.30397C6.17529 2.90797 6.81529 2.61597 7.52329 2.38397Z" fill="#008DFF"/>
<path d="M17.9515 14.124C17.8595 13.74 17.8035 13.456 17.7235 13.18C17.0435 10.748 15.4515 9.38001 13.2555 8.68401C12.3435 8.39601 11.3955 8.30401 10.5115 7.85601C9.84754 7.52401 9.53954 6.45201 9.85154 5.82401C10.2755 4.96801 10.9235 4.45601 11.8355 4.37601C13.1275 4.26401 14.3635 4.46801 15.4915 5.18001C17.4275 6.40401 18.6355 8.42001 18.5315 11.196C18.4915 12.16 18.3275 13.108 17.9515 14.124Z" fill="#FF5000"/>
</svg>
